<svg id="calendar" xmlns="http://www.w3.org/2000/svg" width="27" height="27" viewBox="0 0 27 27">
  <path id="Path_4" data-name="Path 4" d="M12,13.5a1.5,1.5,0,0,0,0,3H24a1.5,1.5,0,0,0,0-3Z" transform="translate(-4.5 -4.5)" fill="#008066"/>
  <path id="Path_5" data-name="Path 5" d="M9,4.5A4.5,4.5,0,0,0,4.5,9V27A4.5,4.5,0,0,0,9,31.5H27A4.5,4.5,0,0,0,31.5,27V9A4.5,4.5,0,0,0,27,4.5ZM7.5,27V10.5h21V27A1.5,1.5,0,0,1,27,28.5H9A1.5,1.5,0,0,1,7.5,27Z" transform="translate(-4.5 -4.5)" fill="#008066" fill-rule="evenodd"/>
</svg>
