<svg xmlns="http://www.w3.org/2000/svg" width="28.48" height="35.065" viewBox="0 0 28.48 35.065">
  <path id="Subtraction_1" data-name="Subtraction 1" d="M708.24-1370.935h0a70.014,70.014,0,0,1-10.657-11.613c-2.377-3.465-3.582-6.564-3.582-9.211a14.147,14.147,0,0,1,4.171-10.069A14.147,14.147,0,0,1,708.24-1406a14.147,14.147,0,0,1,10.069,4.171,14.147,14.147,0,0,1,4.171,10.069c0,2.669-1.205,5.79-3.582,9.278a65.6,65.6,0,0,1-10.657,11.547ZM708-1397a5.006,5.006,0,0,0-5,5,5.006,5.006,0,0,0,5,5,5.006,5.006,0,0,0,5-5A5.005,5.005,0,0,0,708-1397Z" transform="translate(-694 1406)" fill="#fc5757"/>
</svg>
